<?xml version="1.0" encoding="UTF-8" standalone="no"?>
<!-- Created with Inkscape (http://www.inkscape.org/) -->

<svg
   version="1.1"
   id="svg1174"
   width="800"
   height="800"
   viewBox="0 0 800 800"
   sodipodi:docname="bull-logo-publicdomain.svg"
   inkscape:version="1.2 (dc2aedaf03, 2022-05-15)"
   xmlns:inkscape="http://www.inkscape.org/namespaces/inkscape"
   xmlns:sodipodi="http://sodipodi.sourceforge.net/DTD/sodipodi-0.dtd"
   xmlns="http://www.w3.org/2000/svg"
   xmlnsSvg="http://www.w3.org/2000/svg">
  <defs
     id="defs1178">
    <clipPath
       clipPathUnits="userSpaceOnUse"
       id="clipPath1190">
      <path
         d="M 0,600 H 600 V 0 H 0 Z"
         id="path1188" />
    </clipPath>
  </defs>
  <sodipodi:namedview
     id="namedview1176"
     pagecolor="#ffffff"
     bordercolor="#000000"
     borderopacity="0.25"
     inkscape:showpageshadow="2"
     inkscape:pageopacity="0.0"
     inkscape:pagecheckerboard="0"
     inkscape:deskcolor="#d1d1d1"
     showgrid="false"
     inkscape:zoom="1.04625"
     inkscape:cx="400"
     inkscape:cy="400.4779"
     inkscape:window-width="1920"
     inkscape:window-height="1017"
     inkscape:window-x="-8"
     inkscape:window-y="-8"
     inkscape:window-maximized="1"
     inkscape:current-layer="g1182">
    <inkscape:page
       x="0"
       y="0"
       id="page1180"
       width="800"
       height="800" />
  </sodipodi:namedview>
  <g
     id="g1182"
     inkscape:groupmode="layer"
     inkscape:label="Page 1"
     transform="matrix(1.3333333,0,0,-1.3333333,0,800)">
    <g
       id="g1184">
      <g
         id="g1186"
         clip-path="url(#clipPath1190)">
        <g
           id="g1192"
           transform="translate(285.0576,222.6055)">
          <path
             d="M 0,0 C -0.181,0.233 -0.363,0.477 -0.547,0.719 -0.318,0.454 -0.136,0.214 0,0 m 42.33,100.68 c -2.878,12.654 10.074,47.491 37.779,54.328 C 63.754,139.896 52.81,120.33 57.263,115.431 c 3.76,-4.138 20.147,7.555 20.147,7.016 C 75.072,104.637 61.023,95.282 42.33,100.68 M 29.535,95.713 c 1.54,-0.374 3.044,-0.859 4.438,-1.545 -1.543,0.172 -3.062,0.242 -4.57,0.154 C 27.9,94.27 26.415,94.092 24.954,93.817 22.032,93.31 19.203,92.446 16.52,91.327 13.832,90.219 11.272,88.869 8.967,87.268 6.665,85.683 4.596,83.823 3.134,81.806 1.669,79.774 0.942,77.666 1.176,75.854 l 0.1,-1.158 C 1.308,74.249 1.325,73.811 1.339,73.381 1.357,72.522 1.358,71.676 1.327,70.845 1.278,69.179 1.144,67.541 0.931,65.917 c -0.838,-6.479 -2.6,-12.863 -5.698,-18.85 -1.566,-2.974 -3.449,-5.868 -5.843,-8.414 -1.189,-1.277 -2.48,-2.481 -3.881,-3.568 -1.407,-1.082 -2.934,-2.022 -4.525,-2.828 -1.417,-0.726 -2.9,-1.304 -4.414,-1.756 C -17,26.096 -7.646,10.1 -0.547,0.719 -5.128,6.025 -27.802,21.095 -47,32.522 c -3.51,1.417 -6.82,3.178 -9.949,5.129 -1.588,1.015 -3.125,2.085 -4.636,3.185 -4.086,2.194 -7.536,3.895 -9.959,4.854 l 1.421,-0.437 c -0.265,0.109 -0.526,0.223 -0.791,0.33 -1.407,0.574 -2.801,1.205 -4.243,1.676 -5.696,2.105 -11.622,3.702 -17.687,4.044 -6.049,0.43 -12.245,-0.846 -17.647,-3.873 5.133,3.434 11.39,5.271 17.667,5.309 6.289,0.136 12.536,-1.04 18.549,-2.745 0.949,-0.232 1.877,-0.525 2.799,-0.83 -0.021,0.022 -0.045,0.042 -0.068,0.065 0.071,-0.038 0.142,-0.074 0.213,-0.112 0.514,-0.168 1.027,-0.339 1.542,-0.504 1.491,-0.478 2.981,-0.965 4.429,-1.546 l 4.382,-1.671 4.304,-1.845 2.155,-0.925 2.113,-0.998 4.231,-2.001 c 1.23,-0.605 2.451,-1.23 3.671,-1.856 2.092,-0.514 4.185,-0.902 6.269,-1.122 2.79,-0.292 5.553,-0.266 8.161,0.17 1.309,0.201 2.571,0.542 3.785,0.972 1.219,0.42 2.39,0.939 3.492,1.585 4.442,2.521 7.884,6.745 10.389,11.645 2.497,4.912 4.158,10.459 5.09,16.078 0.222,1.405 0.407,2.815 0.53,4.203 0.064,0.695 0.098,1.381 0.121,2.052 0.009,0.334 0.015,0.662 0.008,0.978 l -0.036,1.134 c -0.064,2.145 0.434,4.255 1.238,6.076 0.806,1.832 1.897,3.415 3.122,4.758 2.444,2.71 5.323,4.619 8.289,6.126 2.985,1.481 6.098,2.532 9.268,3.199 3.172,0.648 6.401,0.919 9.593,0.752 1.595,-0.107 3.176,-0.321 4.72,-0.664 m -29.546,35.07 c -0.005,-0.023 -0.02,-0.045 -0.031,-0.068 0.042,0.179 0.055,0.214 0.031,0.068 M 185.299,-1.649 c -0.234,0.2 -0.466,0.399 -0.699,0.599 1.674,3.141 3.189,6.331 4.554,9.564 3.121,7.424 5.476,15.062 7.086,22.798 1.607,7.734 2.46,15.574 2.464,23.358 0.005,7.781 -0.853,15.509 -2.675,22.917 0.78,-15.266 -2.424,-30.196 -8.047,-43.755 -1.624,-3.9 -3.46,-7.689 -5.482,-11.35 1.229,3.852 2.263,7.744 3.089,11.665 2.994,14.239 3.318,28.962 0.151,42.678 0.292,-14.076 -2.98,-27.709 -8.385,-40.075 -1.545,-3.528 -3.291,-6.946 -5.179,-10.259 1.092,3.463 2.02,6.96 2.773,10.483 2.787,13.038 3.201,26.505 0.502,39.089 -0.182,-12.874 -3.515,-25.21 -8.701,-36.384 -1.485,-3.194 -3.143,-6.284 -4.926,-9.283 0.974,3.107 1.817,6.239 2.505,9.395 2.584,11.841 3.079,24.06 0.832,35.509 -0.641,-11.66 -4.022,-22.698 -8.991,-32.68 -1.417,-2.844 -2.98,-5.596 -4.648,-8.266 0.849,2.724 1.59,5.472 2.208,8.239 2.388,10.647 2.955,21.63 1.142,31.944 -1.082,-10.433 -4.491,-20.174 -9.245,-28.961 -1.361,-2.515 -2.847,-4.947 -4.418,-7.308 0.732,2.351 1.383,4.722 1.941,7.11 2.224,9.451 2.829,19.219 1.433,28.396 -0.749,-4.589 -1.976,-9.004 -3.584,-13.211 -1.615,-4.209 -3.584,-8.216 -5.878,-12.006 -1.302,-2.164 -2.698,-4.254 -4.161,-6.29 0.608,1.943 1.16,3.901 1.639,5.87 1.003,4.142 1.732,8.329 2.008,12.517 0.29,4.182 0.186,8.333 -0.314,12.358 -0.939,-3.96 -2.253,-7.735 -3.874,-11.312 -1.609,-3.581 -3.588,-6.946 -5.747,-10.137 -1.222,-1.804 -2.52,-3.543 -3.868,-5.24 0.473,1.494 0.918,2.999 1.305,4.515 0.915,3.566 1.584,7.174 1.929,10.767 0.314,3.605 0.293,7.18 -0.034,10.644 -1.107,-3.32 -2.482,-6.452 -4.1,-9.397 -1.651,-2.937 -3.534,-5.678 -5.572,-8.264 -2.041,-2.589 -4.248,-5.007 -6.582,-7.358 l -3.607,-3.557 c -0.59,-0.57 -1.222,-1.213 -1.847,-1.852 -2.893,0.931 -5.807,1.792 -8.763,2.522 -2.535,0.597 -5.067,1.178 -7.663,1.486 -2.571,0.302 -5.222,0.549 -7.74,-0.019 2.558,-0.067 4.952,-0.928 7.276,-1.812 2.329,-0.891 4.572,-2.037 6.786,-3.187 4.419,-2.353 8.674,-5.026 12.841,-7.82 8.321,-5.609 16.308,-11.714 24.002,-18.099 1.141,-0.945 2.26,-1.912 3.387,-2.871 6.476,-5.508 12.734,-11.227 18.591,-17.121 3.412,-3.464 6.693,-7.004 9.587,-10.541 0.758,-0.879 1.379,-1.764 2.071,-2.636 0.661,-0.872 1.228,-1.729 1.825,-2.575 l 0.743,-1.218 c 0.12,-0.2 0.259,-0.406 0.363,-0.596 l 0.258,-0.539 0.263,-0.529 c 0.09,-0.177 0.192,-0.36 0.199,-0.473 0.012,-0.048 0.028,-0.088 0.039,-0.134 -16.162,-15.483 -35.945,-28.755 -51.931,-38.812 5.371,6.487 9.968,13.638 12.83,21.426 -4.65,-8.455 -11.278,-15.442 -18.523,-21.453 -5.533,-4.548 -11.469,-8.549 -17.636,-12.122 4.025,3.592 7.835,7.407 11.334,11.486 5.782,6.753 10.747,14.318 13.666,22.57 -4.241,-7.649 -10.182,-14.027 -16.711,-19.511 -5.112,-4.274 -10.616,-8.029 -16.332,-11.38 3.593,3.39 6.979,6.983 10.073,10.805 5.021,6.225 9.299,13.123 11.809,20.567 -3.832,-6.849 -9.117,-12.596 -14.914,-17.566 -4.696,-4.006 -9.761,-7.521 -15.034,-10.651 3.17,3.194 6.136,6.573 8.824,10.15 4.268,5.687 7.844,11.921 9.964,18.549 -3.444,-6.043 -8.06,-11.169 -13.137,-15.622 -4.305,-3.764 -8.966,-7.059 -13.83,-9.975 2.766,3.035 5.342,6.227 7.647,9.586 3.518,5.132 6.412,10.682 8.161,16.492 -3.075,-5.236 -7.049,-9.731 -11.419,-13.659 -3.849,-3.451 -8.031,-6.457 -12.386,-9.143 2.294,2.827 4.419,5.773 6.285,8.856 2.765,4.568 4.985,9.429 6.361,14.428 -2.704,-4.438 -6.046,-8.306 -9.721,-11.716 -3.418,-3.169 -7.137,-5.936 -11.021,-8.401 1.853,2.65 3.541,5.4 4.978,8.257 2.024,3.989 3.597,8.142 4.604,12.34 -2.338,-3.646 -5.081,-6.89 -8.084,-9.783 -2.958,-2.87 -6.21,-5.366 -9.606,-7.588 0.78,1.424 1.505,2.869 2.18,4.329 2.196,1.598 4.209,3.487 5.88,5.643 2.595,3.288 4.369,7.091 5.417,10.916 1.063,3.837 1.437,7.707 1.417,11.476 -0.035,3.773 -0.465,7.464 -1.172,11.057 -0.354,1.796 -0.774,3.57 -1.252,5.32 -0.523,1.894 -0.943,3.123 -1.183,4.658 -0.499,3.003 -0.45,6.236 -0.066,9.467 0.383,3.24 1.113,6.493 2.064,9.702 1.918,6.42 4.687,12.673 8.065,18.583 3.392,5.896 7.372,11.525 12.186,16.37 2.417,2.398 5.056,4.617 8.058,6.226 1.495,0.806 3.097,1.429 4.776,1.722 1.674,0.288 3.441,0.169 5.05,-0.495 -1.547,0.793 -3.347,1.074 -5.102,0.916 C 87.17,59.518 85.454,59.007 83.839,58.3 80.594,56.889 77.689,54.823 75.002,52.56 69.643,47.982 65.09,42.544 61.089,36.745 57.104,30.927 53.69,24.684 51.083,18.009 49.788,14.668 48.702,11.213 47.973,7.614 47.972,7.611 47.972,7.608 47.971,7.605 c -1.726,3.404 -3.351,6.834 -4.761,10.354 -1.793,4.445 -3.259,9.026 -4.121,13.754 -0.89,4.72 -1.074,9.601 -0.327,14.437 -1.372,-4.69 -1.854,-9.696 -1.577,-14.655 0.247,-4.969 1.137,-9.906 2.383,-14.725 1.234,-4.828 2.835,-9.549 4.531,-14.18 l 2.532,-6.864 c 0.405,-1.126 0.783,-2.238 1.113,-3.312 0.023,-0.079 0.044,-0.156 0.065,-0.235 0.095,-0.468 0.189,-0.909 0.268,-1.301 0.316,-1.62 0.576,-3.243 0.773,-4.866 0.391,-3.244 0.516,-6.486 0.31,-9.637 -0.398,-6.293 -2.32,-12.247 -6.075,-16.281 -1.85,-2.039 -4.141,-3.602 -6.713,-4.758 -2.581,-1.144 -5.452,-1.86 -8.45,-2.245 -2.663,-0.33 -5.412,-0.4 -8.198,-0.288 -1.212,0.275 -2.427,0.508 -3.644,0.677 -26.326,3.697 -36.757,9.988 -47.8,16.649 -4.256,2.568 -8.656,5.223 -14.033,7.798 -20.145,9.645 -35.9,10.67 -44.365,2.879 -0.374,-0.344 -0.8,-0.632 -1.864,-0.389 -2.821,0.644 -6.12,3.864 -7.936,6.177 2.023,1.13 5.087,2.626 7.536,3.823 8.072,3.947 13.787,6.869 16.9,9.824 4.953,-0.801 9.795,-2.129 10.86,-3.047 -0.205,0.178 7.927,1.018 7.927,1.018 0.117,0.854 0.034,1.717 -0.231,2.536 -1.588,6.045 -9.852,10.799 -18.556,15.809 -3.655,2.102 -7.434,4.276 -8.75,5.591 -4.713,4.711 -10.369,0.702 -15.84,-3.179 -4.661,-3.304 -10.214,-7.228 -17.054,-8.935 -0.712,4.272 -1.968,8.747 -3.517,12.788 3.193,8.709 3.454,22.56 -1.149,31.083 -5.304,9.824 -12.056,-8.315 -19.084,-17.869 -0.898,4.286 -0.828,10.13 2.874,20.568 9.648,5.792 16.78,14.972 22.843,24.507 -0.031,-2.105 -0.089,-4.171 -0.325,-6.218 -0.34,-2.915 -0.982,-5.815 -2.296,-8.458 -0.65,-1.322 -1.451,-2.579 -2.39,-3.743 -0.959,-1.146 -2.056,-2.185 -3.244,-3.132 1.299,0.781 2.543,1.679 3.68,2.722 1.116,1.063 2.124,2.256 2.991,3.555 1.753,2.598 2.853,5.603 3.615,8.628 0.763,3.032 1.144,6.131 1.589,9.093 0.223,1.474 0.469,2.929 0.856,4.18 0.354,1.293 1.014,2.144 1.4,2.212 l -0.26,0.445 c 0.421,0.723 0.841,1.444 1.258,2.159 7.577,13.019 14.731,25.316 24.725,27.563 l 3.117,0.7 0.038,0.502 c 0.607,0.033 1.213,0.055 1.821,0.052 2.733,-0.026 5.497,-0.432 8.013,-1.531 0.377,-0.156 0.741,-0.34 1.1,-0.538 0.056,-0.72 0.109,-1.441 0.177,-2.155 0.201,-2.122 0.456,-4.225 0.69,-6.264 0.115,-1.016 0.226,-2.022 0.296,-2.955 0.016,-0.221 0.03,-0.44 0.041,-0.65 -0.272,-2.102 -0.5,-4.361 -0.734,-6.775 -0.913,-9.409 -4.183,-17.1 -5.287,-21.074 -0.488,-0.786 -0.995,-1.56 -1.507,-2.33 -0.952,-1.433 -1.935,-2.845 -2.984,-4.203 -1.71,-2.199 -3.556,-4.293 -5.682,-6.053 -1.066,-0.872 -2.214,-1.641 -3.473,-2.194 -1.253,-0.546 -2.653,-0.859 -4.091,-0.626 1.33,-0.585 2.9,-0.657 4.388,-0.413 1.496,0.246 2.943,0.76 4.309,1.397 2.736,1.29 5.231,2.995 7.591,4.825 2.357,1.84 4.586,3.826 6.726,5.899 1.269,1.233 2.488,2.472 3.694,3.76 10.514,0.412 26.896,-9.656 39.642,-6.697 14.269,3.31 24.902,54.754 25.633,57.921 -1.24,-2.671 -50.579,-3.156 -58.618,-6.19 -1.498,-0.566 -2.753,-1.318 -3.813,-2.246 -0.367,2.579 -0.623,5.141 -0.666,7.681 -0.059,3.87 0.363,7.701 1.677,11.125 1.3,3.418 3.589,6.353 6.747,8.35 1.566,1.02 3.305,1.771 5.204,2.449 1.87,0.664 3.791,1.205 5.747,1.593 3.913,0.783 7.965,0.964 11.998,0.567 4.035,-0.389 8.039,-1.347 11.935,-2.679 1.951,-0.661 3.875,-1.418 5.797,-2.198 0.964,-0.386 1.923,-0.783 2.902,-1.141 0.491,-0.177 0.984,-0.348 1.492,-0.477 0.499,-0.114 1.044,-0.248 1.544,-0.067 -0.509,-0.135 -1.024,0.042 -1.507,0.196 -0.486,0.17 -0.957,0.38 -1.426,0.597 -0.935,0.438 -1.856,0.914 -2.781,1.383 -1.849,0.945 -3.715,1.87 -5.629,2.711 -3.824,1.688 -7.844,3.037 -12.023,3.809 -4.175,0.78 -8.504,0.972 -12.79,0.494 -2.142,-0.233 -4.272,-0.636 -6.366,-1.181 -2.06,-0.538 -4.232,-1.244 -6.253,-2.321 -2.028,-1.059 -3.924,-2.464 -5.548,-4.156 -1.62,-1.694 -2.953,-3.66 -3.974,-5.743 -0.762,-1.565 -1.358,-3.176 -1.823,-4.811 -0.659,0.747 -1.37,1.477 -2.198,2.167 -0.752,0.634 -1.655,1.236 -2.67,1.717 0.658,14.633 22.996,44.673 34.692,58.891 34.296,-8.552 43.558,-19.702 45.996,-25.742 1.835,-4.551 1.159,-9.313 -2.012,-14.154 l -2.661,-4.062 3.153,-3.693 c 4.376,-5.124 13.78,-11.223 26.678,-11.222 0.677,0 1.367,0.023 2.064,0.057 -1.037,-1.842 -1.982,-3.74 -2.805,-5.7 -3.733,-8.796 -4.588,-18.653 -2.463,-27.528 0.123,4.564 0.656,9.042 1.864,13.286 1.212,4.239 2.943,8.249 5.179,11.945 4.475,7.407 10.637,13.603 17.415,19.135 6.757,5.591 14.172,10.487 21.631,15.719 3.746,2.608 7.507,5.3 11.203,8.417 1.019,0.861 2.035,1.761 3.033,2.72 0.307,-1.177 0.592,-2.36 0.847,-3.549 0.95,-4.536 1.723,-9.108 2.114,-13.723 0.771,-9.222 0.282,-18.548 -1.494,-27.717 -1.812,-9.159 -4.893,-18.145 -9.108,-26.691 -2.099,-4.279 -4.501,-8.434 -7.13,-12.482 -1.338,-2.004 -2.707,-4.009 -4.208,-5.915 -1.455,-1.95 -3.019,-3.819 -4.647,-5.668 2.056,1.358 3.976,2.914 5.877,4.509 1.876,1.623 3.639,3.368 5.392,5.143 3.446,3.597 6.579,7.515 9.421,11.659 5.675,8.292 10.024,17.593 12.816,27.416 2.798,9.827 3.878,20.176 3.417,30.442 -0.317,5.128 -0.95,10.236 -1.985,15.259 -0.38,1.833 -0.828,3.649 -1.302,5.456 l 2.947,0.692 c 1.463,-2.002 2.777,-4.141 3.965,-6.381 l 0.916,-1.96 c 0.152,-0.328 0.318,-0.653 0.459,-0.988 l 0.39,-1.016 0.793,-2.043 0.645,-2.102 c 1.697,-5.636 2.42,-11.696 2.207,-17.84 -0.202,-6.149 -1.314,-12.357 -2.997,-18.467 l -1.368,-4.57 -1.66,-4.493 c -0.285,-0.749 -0.547,-1.509 -0.85,-2.252 l -0.971,-2.2 -1.952,-4.422 2.666,4.041 1.339,2.029 c 0.427,0.688 0.814,1.399 1.225,2.1 l 2.432,4.235 2.171,4.397 c 2.769,5.937 5.047,12.211 6.397,18.832 1.353,6.61 1.746,13.565 0.884,20.529 l -0.345,2.615 -0.522,2.594 -0.267,1.303 c -0.102,0.431 -0.231,0.855 -0.344,1.285 l -0.715,2.576 c -0.566,1.734 -1.197,3.455 -1.906,5.155 l 2.902,0.682 c 1.273,-1.828 2.406,-3.834 3.418,-5.938 0.502,-1.194 1.078,-2.374 1.48,-3.629 0.219,-0.622 0.458,-1.24 0.663,-1.871 l 0.546,-1.921 c 1.426,-5.152 2.069,-10.653 1.981,-16.232 -0.08,-5.582 -0.879,-11.232 -2.161,-16.83 l -1.064,-4.189 c -0.406,-1.383 -0.868,-2.753 -1.301,-4.138 l -0.667,-2.076 -0.779,-2.036 -1.568,-4.088 2.297,3.737 1.154,1.879 1.048,1.938 c 0.69,1.297 1.411,2.589 2.081,3.907 l 1.868,4.034 c 2.368,5.446 4.317,11.166 5.529,17.155 1.217,5.983 1.688,12.235 1.161,18.559 l -0.221,2.376 c -0.102,0.791 -0.24,1.579 -0.362,2.372 -0.21,1.593 -0.619,3.158 -0.97,4.745 -0.459,1.735 -0.996,3.466 -1.623,5.185 l 3.015,0.707 c 1.055,-1.625 1.989,-3.49 2.813,-5.438 0.424,-1.083 0.867,-2.168 1.203,-3.31 0.393,-1.12 0.686,-2.281 0.984,-3.45 1.168,-4.684 1.739,-9.641 1.77,-14.666 0.035,-5.027 -0.461,-10.126 -1.348,-15.206 -0.882,-5.09 -2.322,-10.1 -3.933,-15.099 2.592,4.549 5.075,9.236 7.045,14.197 1.97,4.953 3.597,10.111 4.681,15.471 1.082,5.355 1.623,10.908 1.416,16.572 -0.183,4.561 -0.781,9.17 -2.203,13.847 l 3.141,0.738 c 0.801,-1.398 1.513,-3.105 2.134,-4.857 l 0.499,-1.483 0.431,-1.53 c 0.311,-1.018 0.526,-2.074 0.772,-3.129 0.922,-4.235 1.423,-8.669 1.568,-13.155 0.147,-4.49 -0.064,-9.04 -0.559,-13.602 -0.511,-4.561 -1.394,-9.102 -2.459,-13.645 2.075,4.164 4.016,8.448 5.612,12.903 1.578,4.459 2.9,9.055 3.859,13.786 0.957,4.731 1.557,9.588 1.655,14.572 0.007,1.247 0.042,2.499 -0.03,3.765 -0.027,0.633 -0.043,1.265 -0.082,1.903 l -0.168,1.923 c -0.195,1.787 -0.449,3.586 -0.869,5.454 l 3.262,0.764 c 0.513,-1.191 0.974,-2.684 1.375,-4.157 0.494,-1.79 0.869,-3.682 1.224,-5.583 0.688,-3.82 1.131,-7.757 1.383,-11.729 0.248,-3.974 0.305,-7.99 0.192,-12.029 -0.137,-4.035 -0.469,-8.084 -0.948,-12.147 1.524,3.788 2.926,7.659 4.143,11.614 1.191,3.958 2.23,7.991 3.072,12.097 0.84,4.109 1.488,8.283 1.865,12.561 0.176,2.145 0.327,4.302 0.323,6.533 -0.006,1.852 -0.037,3.682 -0.297,5.738 l 3.291,0.773 c 0.24,-1.09 0.496,-2.09 0.746,-3.106 l 1.143,-4.561 c 0.736,-3.014 1.41,-6.033 1.986,-9.089 0.576,-3.053 1.056,-6.137 1.453,-9.251 0.4,-3.114 0.664,-6.254 0.881,-9.42 0.855,3.048 1.672,6.134 2.353,9.263 0.686,3.13 1.287,6.295 1.789,9.491 0.5,3.193 0.901,6.419 1.233,9.639 l 0.463,4.788 c 0.086,0.859 1.002,2.253 1.845,3.533 7.936,-21.724 14.452,-49.012 16.92,-77.519 2.73,-31.494 2.1,-85.944 -26.189,-128.942 m -320.656,32.615 c -1.478,-1.792 -1.8,-3.753 -0.861,-5.244 1.741,-2.767 4.447,-10.262 6.042,-15.987 -1.335,0.537 -2.398,1.276 -3.201,1.985 -2.766,2.446 -4.333,6.185 -4.192,10.004 0.134,3.591 -0.749,6.355 -1.678,8.983 2.449,1.102 4.986,2.399 7.33,2.86 -1.351,-0.608 -2.576,-1.554 -3.44,-2.601 m 13.756,-34.358 c -0.539,-0.815 -1.461,-1.674 -3.823,-1.056 -1.697,0.443 -3.384,2.889 -4.787,5.925 1.811,-1.671 2.444,-1.571 3.031,-1.479 0.789,0.122 1.442,0.634 1.792,1.403 1.666,3.662 -4.856,21.89 -7.522,26.254 0.07,0.324 0.587,1.194 1.727,1.959 0.85,0.57 1.743,0.869 2.39,0.827 5.902,-8.173 10.897,-28.211 7.192,-33.833 m 14.02,12.497 11.179,1.884 10.43,1.758 6.311,1.064 c -2.04,-0.752 -3.673,-1.364 -5.008,-1.877 -6.309,-2.422 -5.829,-2.587 -8.501,-4.147 -1.87,-1.091 -5.36,-0.924 -8.568,-0.334 -2.348,0.432 -4.545,1.089 -5.843,1.652 m 37.95,112.711 c -2.466,1.857 -5.376,3.054 -8.347,3.829 -0.679,0.175 -1.362,0.32 -2.049,0.455 0.385,4.292 0.87,7.33 1.469,9.217 0.892,0.644 1.72,1.145 2.571,1.447 0.971,0.373 2.16,0.395 3.528,0.061 1.146,-0.273 2.348,-0.76 3.546,-1.323 -0.344,-1.781 -0.566,-3.572 -0.697,-5.342 -0.198,-2.81 -0.165,-5.593 -0.021,-8.344 m 42.927,-3.116 c -17.589,-2.393 -32.226,-24.587 -33.431,-20.378 -1.821,6.358 -0.938,14.45 5.309,16.471 15.304,4.955 33.575,4.649 28.122,3.907 m 6.217,-9.081 c 2.212,-2.135 -4.449,-18.287 -6.933,-19.038 -4.831,-1.461 -11.324,-1.206 -11.324,-1.206 1.298,0.618 16.046,22.38 18.257,20.244 M -45.458,99.57 c 0,0 9.988,5.111 10.663,3.692 0.676,-1.419 -1.798,-6.151 -1.624,-5.47 0.175,0.68 -9.039,1.778 -9.039,1.778 m -0.756,103.576 c -3.425,-4.589 -9.334,-13.399 -9.721,-13.609 -0.65,0.211 -1.314,0.413 -1.99,0.611 -4.358,1.278 -9.264,2.332 -14.672,3.698 -39.963,10.092 -39.243,52.189 -29.529,59.297 -0.578,-17.182 10.508,-26.451 24.012,-31.413 7.929,-8.22 18.418,-14.927 31.9,-18.584 m 37.689,26.119 c 2.088,-0.123 5.261,0.036 9.65,0.256 38.389,1.916 82.6,-0.339 86.275,-34.475 l -0.38,-0.912 c -0.471,-1.128 -1.295,-2.39 -2.33,-3.648 -1.063,3.074 -2.479,6.066 -4.333,8.816 -3.531,5.25 -8.41,9.284 -13.462,12.035 -5.077,2.781 -10.334,4.467 -15.504,5.652 -5.184,1.174 -10.319,1.841 -15.403,2.287 -10.172,0.882 -20.156,0.854 -30.072,1.051 -4.957,0.101 -9.898,0.24 -14.818,0.63 -4.915,0.401 -9.827,1.021 -14.609,2.411 4.532,-2.069 9.403,-3.424 14.281,-4.545 4.888,-1.113 9.826,-1.975 14.748,-2.795 9.84,-1.632 19.679,-3.051 29.117,-5.28 4.713,-1.114 9.324,-2.425 13.648,-4.096 4.319,-1.67 8.356,-3.721 11.67,-6.25 3.326,-2.526 5.846,-5.497 7.401,-8.799 1.113,-2.396 -2.219,-12.362 -4.159,-19.211 -5.033,-3.947 -10.041,-8.093 -14.732,-12.676 -0.297,-0.293 -0.592,-0.59 -0.887,-0.887 -7.767,-3.599 -15.004,-4.485 -21.588,-2.62 -2.845,0.805 -5.133,2.022 -6.802,3.134 2.986,6.925 3.166,14.216 0.429,20.997 -6.202,15.368 -26.308,27.02 -59.761,34.633 -36.584,8.325 -43.607,40.408 -44.888,50.043 -0.271,2.041 -0.426,3.957 -0.49,5.743 14.011,-26.7 53.341,-40.121 76.999,-41.494 m 91.162,-1.39 c 12.07,2.667 27.67,6.79 42.931,10.823 17.196,4.545 38.416,10.153 43.42,10.35 7.897,-5.957 16.94,-21.266 24.735,-41.954 L 100.234,196.85 c -1.191,10.264 -5.611,21.981 -17.597,31.025 m 94.765,38.905 c -42.291,42.29 -98.517,65.58 -158.324,65.58 -59.807,0 -116.034,-23.29 -158.325,-65.58 -42.29,-42.289 -65.579,-98.517 -65.579,-158.323 0,-59.808 23.289,-116.035 65.579,-158.325 42.291,-42.289 98.518,-65.58 158.324,-65.58 59.807,0 116.034,23.291 158.324,65.58 42.29,42.29 65.579,98.517 65.579,158.325 0,59.806 -23.289,116.033 -65.578,158.323"
             style="fill:#110f0d;fill-opacity:1;fill-rule:nonzero;stroke:none"
             id="path1194" />
        </g>
        <g
           id="g1196"
           transform="translate(126.5498,394.6294)">
          <path
             d="M 0,0 0.046,-0.022 Z"
             style="fill:#ffffff;fill-opacity:1;fill-rule:nonzero;stroke:none"
             id="path1198" />
        </g>
      </g>
    </g>
  </g>
</svg>
